<?xml version="1.0" standalone="no"?>
<!DOCTYPE svg PUBLIC "-//W3C//DTD SVG 20010904//EN"
 "http://www.w3.org/TR/2001/REC-SVG-20010904/DTD/svg10.dtd">
<svg version="1.0" xmlns="http://www.w3.org/2000/svg"
 width="2736.000000pt" height="3071.000000pt" viewBox="0 0 2736.000000 3071.000000"
 preserveAspectRatio="xMidYMid meet">

<g transform="translate(0.000000,3071.000000) scale(0.100000,-0.100000)"
fill="#000000" stroke="none">
<path d="M15275 23192 c-776 -382 -1404 -892 -1767 -1431 -175 -262 -264 -531
-283 -861 -20 -332 78 -725 238 -960 42 -61 133 -156 184 -191 l42 -29 36 117
c152 499 406 1127 628 1553 64 124 247 443 262 458 8 9 45 -11 45 -23 0 -8
-36 -80 -81 -161 -153 -279 -306 -621 -449 -1004 -145 -388 -325 -969 -306
-988 16 -15 299 -7 386 12 267 57 530 191 765 388 165 138 281 273 353 408
245 460 315 1393 191 2545 -24 224 -29 265 -38 265 -3 0 -96 -44 -206 -98z"/>
<path d="M8610 18394 c-215 -18 -498 -51 -508 -59 -5 -4 100 -231 202 -435
464 -928 991 -1593 1470 -1859 333 -185 787 -258 1100 -177 102 26 259 97 308
138 l28 23 -138 155 c-456 511 -1001 962 -1470 1214 -115 62 -131 77 -113 105
12 19 137 -31 366 -148 455 -233 896 -572 1379 -1059 l119 -121 33 42 c95 119
128 245 121 457 -8 217 -52 383 -161 606 -137 279 -305 486 -538 662 -279 210
-747 366 -1318 438 -118 15 -761 28 -880 18z"/>
<path d="M16830 17983 c-407 -29 -715 -123 -990 -300 -325 -211 -549 -530
-615 -874 -15 -81 -20 -225 -9 -266 6 -22 7 -22 78 18 472 265 915 403 1635
509 176 26 215 29 222 18 22 -34 5 -41 -256 -99 -553 -124 -869 -232 -1240
-422 -167 -86 -375 -215 -375 -232 0 -31 85 -147 161 -219 173 -164 438 -272
747 -306 145 -16 473 -8 597 15 427 77 972 410 1605 978 149 134 514 497 628
624 l73 82 -48 21 c-343 154 -861 314 -1246 385 -338 62 -701 87 -967 68z"/>
<path d="M20238 14486 c-98 -36 -123 -80 -123 -213 0 -101 11 -127 74 -170 45
-31 106 -40 338 -53 246 -14 296 -6 361 53 46 42 65 172 38 250 -39 108 -105
127 -501 142 -116 4 -159 2 -187 -9z m335 -77 c194 -11 235 -19 274 -53 26
-22 28 -30 28 -94 0 -61 -3 -74 -24 -96 -43 -46 -78 -50 -323 -37 -123 7 -242
17 -266 23 -62 15 -92 55 -92 123 0 71 13 101 52 125 39 24 94 25 351 9z"/>
<path d="M20056 13707 c-3 -16 -6 -33 -6 -36 0 -4 139 -68 310 -142 170 -74
310 -136 310 -139 0 -3 -151 -13 -336 -21 -357 -17 -354 -16 -354 -66 0 -28
-44 -28 450 0 l384 22 7 34 7 33 -77 36 c-42 19 -214 97 -383 172 l-306 137
-6 -30z"/>
<path d="M19887 12933 c-12 -20 -88 -276 -83 -280 3 -3 177 -61 386 -128 250
-80 383 -119 385 -111 3 6 24 73 48 148 36 112 42 138 30 142 -35 14 -42 4
-74 -99 -18 -58 -36 -105 -42 -105 -14 0 -301 92 -308 99 -4 3 6 45 21 93 l27
86 -21 6 c-12 3 -24 6 -27 6 -3 0 -16 -35 -29 -77 -13 -43 -27 -82 -31 -86 -7
-9 -266 68 -283 83 -4 4 6 54 24 111 25 82 29 104 18 110 -16 11 -35 11 -41 2z"/>
<path d="M8979 12395 c-138 -44 -249 -191 -249 -327 0 -37 -2 -39 -22 -31 -13
4 -63 8 -113 8 -83 0 -95 -3 -153 -34 -34 -19 -81 -54 -103 -79 l-41 -44 -60
12 c-166 36 -338 -33 -430 -171 l-34 -51 -90 -2 c-75 -1 -97 -6 -139 -28 -56
-30 -105 -72 -105 -92 0 -13 -10 -10 1268 -352 843 -225 879 -232 1109 -220
135 7 251 26 338 56 57 20 1265 699 1265 712 0 3 -23 14 -51 23 -67 23 -185
17 -251 -12 -60 -27 -133 -95 -168 -157 l-28 -49 -17 33 c-31 59 -102 126
-168 156 -53 25 -75 29 -147 29 -71 0 -94 -4 -141 -26 -31 -15 -74 -43 -96
-63 -22 -20 -43 -36 -47 -36 -3 0 -6 12 -6 28 0 79 -105 205 -197 236 -53 18
-131 21 -185 6 -36 -10 -41 -9 -91 29 -71 54 -117 72 -201 78 -54 4 -84 1
-128 -14 l-56 -19 -4 76 c-8 188 -149 329 -338 337 -47 2 -92 -3 -121 -12z"/>
<path d="M19617 12204 l-17 -34 58 -26 c500 -221 602 -268 622 -289 23 -24 24
-46 4 -112 -4 -16 -1 -23 16 -28 27 -9 35 1 56 72 24 83 2 123 -96 173 -44 22
-470 212 -596 266 -30 13 -31 12 -47 -22z"/>
<path d="M12862 11869 c-123 -21 -290 -121 -378 -228 -94 -112 -174 -310 -174
-427 0 -20 -4 -25 -16 -20 -190 73 -388 -33 -423 -225 -4 -24 -13 -43 -19 -42
-240 50 -444 7 -628 -131 -48 -36 -104 -94 -140 -145 -2 -1 -18 9 -38 24 -54
41 -128 65 -201 65 -49 0 -65 -3 -65 -14 0 -19 75 -85 117 -103 19 -8 418
-117 887 -243 1776 -477 1647 -447 1911 -436 160 6 254 21 349 55 44 15 1190
654 1215 677 12 11 -17 18 -77 18 -83 0 -150 -28 -209 -86 l-42 -41 -41 37
c-40 36 -170 106 -197 106 -7 0 -13 9 -13 21 0 129 -121 242 -242 226 -36 -5
-38 -3 -66 47 -39 67 -99 121 -181 160 -60 28 -75 31 -167 31 -97 0 -103 -1
-180 -40 -43 -22 -82 -41 -86 -43 -5 -2 -8 27 -8 66 0 144 -71 329 -173 452
-48 59 -220 190 -232 178 -3 -2 4 -74 14 -159 10 -85 17 -155 16 -157 -1 -1
-24 11 -51 27 -79 49 -158 72 -271 78 l-103 6 0 138 c0 157 9 144 -88 128z"/>
<path d="M19313 11588 c-42 -53 -56 -35 273 -338 l307 -282 20 32 20 31 -54
48 c-30 26 -67 60 -84 74 l-30 26 29 53 c16 29 40 70 52 90 l24 37 102 -35
103 -34 17 22 c10 13 18 28 18 33 0 8 -621 211 -771 252 -8 2 -20 -2 -26 -9z
m495 -212 c4 -4 -47 -100 -77 -145 -7 -10 -47 21 -175 134 -91 82 -166 149
-166 151 0 4 412 -135 418 -140z"/>
<path d="M18940 10978 c-32 -17 -67 -53 -122 -124 -42 -54 -77 -103 -77 -109
0 -5 145 -119 322 -251 l322 -241 22 30 c13 17 20 34 16 38 -5 5 -76 59 -160
122 l-151 113 39 52 c22 29 45 52 50 52 6 0 93 -29 194 -65 100 -36 187 -65
193 -65 11 0 46 49 40 56 -2 2 -92 35 -199 73 l-194 69 3 45 c4 54 -13 92 -66
143 -45 43 -97 71 -149 79 -29 5 -49 1 -83 -17z m127 -78 c111 -64 129 -129
63 -228 -22 -33 -46 -64 -53 -70 -9 -8 -43 12 -129 76 -65 48 -117 91 -118 95
0 16 94 128 120 142 37 21 59 18 117 -15z"/>
<path d="M7352 9218 l3 -1241 125 -39 c69 -21 131 -38 138 -38 10 0 12 252 10
1242 l-3 1243 -115 32 c-63 17 -125 35 -138 38 l-22 5 2 -1242z"/>
<path d="M7742 10195 l3 -168 126 -47 c69 -25 142 -56 162 -69 49 -30 90 -84
132 -173 65 -137 66 -152 63 -812 -3 -538 -5 -595 -21 -636 -22 -56 -60 -97
-112 -121 -50 -23 -164 -25 -250 -4 -33 8 -66 14 -72 15 -10 0 -13 -41 -13
-170 l0 -170 28 -11 c149 -57 332 -70 449 -31 159 51 259 161 309 339 15 51
17 129 15 683 -2 514 -5 642 -17 719 -50 297 -216 581 -405 689 -30 17 -126
52 -212 77 -87 25 -165 49 -173 52 -12 5 -14 -20 -12 -162z"/>
<path d="M18336 10301 c-14 -15 -26 -30 -26 -34 0 -7 435 -664 451 -682 6 -6
19 0 35 17 l26 26 -63 90 -62 91 67 76 c37 41 69 75 71 75 2 0 46 -27 96 -60
l93 -60 28 27 c15 15 27 27 25 29 -1 1 -162 99 -358 217 l-357 215 -26 -27z
m269 -194 c88 -55 166 -104 172 -111 10 -9 -1 -25 -51 -75 l-63 -63 -122 175
c-66 96 -121 178 -121 182 0 7 -14 16 185 -108z"/>
<path d="M9302 8673 l3 -1246 127 -37 c70 -21 139 -41 153 -44 l25 -6 0 1243
0 1243 -107 32 c-60 18 -129 39 -156 47 l-47 14 2 -1246z"/>
<path d="M17812 9799 c-54 -27 -109 -91 -123 -143 -14 -53 1 -105 48 -157 45
-49 107 -69 222 -69 47 0 126 -5 175 -10 101 -10 142 -32 176 -93 28 -48 20
-86 -27 -132 -59 -57 -116 -57 -194 1 -41 30 -43 30 -63 -1 -16 -25 -16 -27 6
-46 98 -84 218 -81 299 8 67 71 77 150 30 225 -56 88 -132 113 -373 122 -150
6 -182 15 -217 65 -40 56 -19 124 52 166 24 14 51 25 61 25 23 0 75 -27 104
-54 l23 -21 19 25 c11 14 20 28 20 32 0 4 -21 22 -47 39 -62 43 -130 49 -191
18z"/>
<path d="M9956 9353 l-216 -337 0 -295 0 -296 226 -615 c125 -338 230 -619
234 -623 12 -13 295 -95 298 -87 2 4 -97 295 -219 646 -121 352 -242 701 -268
778 l-48 138 289 460 c159 253 288 462 286 463 -2 2 -77 24 -168 49 -91 26
-172 48 -181 51 -12 4 -68 -76 -233 -332z"/>
<path d="M11650 9263 c-64 -11 -155 -48 -203 -84 -88 -66 -142 -153 -180 -287
-20 -74 -21 -101 -25 -682 -3 -633 1 -735 39 -884 65 -254 239 -475 467 -590
l52 -26 0 163 0 164 -40 18 c-53 24 -126 103 -154 168 -51 116 -50 106 -47
827 l2 675 24 51 c33 73 109 124 186 124 l29 0 0 179 c0 154 -2 180 -16 185
-17 6 -93 6 -134 -1z"/>
<path d="M11920 9058 l0 -165 40 -18 c43 -20 138 -113 163 -160 24 -47 48
-140 55 -212 l7 -66 135 -33 c184 -45 172 -47 165 29 -18 172 -85 369 -169
496 -86 129 -255 261 -368 287 l-28 6 0 -164z"/>
<path d="M12181 7270 c-25 -153 -96 -234 -233 -264 l-28 -6 0 -156 0 -156 118
3 c113 4 121 6 194 41 120 60 192 152 228 293 11 43 20 111 20 150 l0 72 -132
43 c-73 23 -137 44 -143 47 -8 2 -16 -21 -24 -67z"/>
</g>
</svg>
